<?xml version="1.0" ?><!DOCTYPE svg  PUBLIC '-//W3C//DTD SVG 1.1//EN'  'http://www.w3.org/Graphics/SVG/1.1/DTD/svg11.dtd'><svg height="4rem" style="shape-rendering:geometricPrecision; text-rendering:geometricPrecision; image-rendering:optimizeQuality; fill-rule:evenodd; clip-rule:evenodd" version="1.1" viewBox="0 0 846.66 846.66" width="4rem" xml:space="preserve" xmlns="http://www.w3.org/2000/svg" xmlns:xlink="http://www.w3.org/1999/xlink"><defs><style type="text/css">
   <![CDATA[
    .fil0 {fill:#e6be31;fill-rule:nonzero}
   ]]>
  </style></defs><g id="Layer_x0020_1"><path class="fil0" d="M749.49 555.02c0,-27.14 41.26,-27.14 41.26,0l0 186.19c0,11.4 -9.24,20.63 -20.63,20.63l-45.12 0 0 53.07c0,11.39 -9.24,20.63 -20.63,20.63l-562.08 0c-11.39,0 -20.63,-9.24 -20.63,-20.63l0 -53.07 -45.12 0c-11.39,0 -20.63,-9.23 -20.63,-20.63l0 -186.19c0,-27.14 41.26,-27.14 41.26,0l0 96.6 64.16 0 0 -152.77c0,-11.39 9.24,-20.63 20.63,-20.63l63.05 0c11.39,0 20.63,9.24 20.63,20.63l0 152.77 35.58 0 0 -249.31c0,-11.4 9.24,-20.63 20.63,-20.63l63.06 0c11.39,0 20.63,9.23 20.63,20.63l0 249.31 35.58 0 0 -152.77c0,-11.39 9.24,-20.63 20.63,-20.63l63.05 0c11.39,0 20.63,9.24 20.63,20.63l0 152.77 35.59 0 0 -347.83c0,-11.39 9.24,-20.63 20.63,-20.63l63.05 0c11.39,0 20.63,9.24 20.63,20.63l0 347.83 64.16 0 0 -96.6zm-65.75 206.82l-520.82 0 0 32.43 520.82 0 0 -32.43zm-520.75 -346.91c-27.14,0 -27.14,-41.27 0,-41.27l49.2 0 21.42 -79.96c2.47,-9.21 10.8,-15.29 19.91,-15.29l169.48 -0.02c9.77,0 17.95,6.8 20.09,15.91l25.48 79.36 21.31 0 11.98 -164.35c0.77,-10.86 9.82,-19.16 20.55,-19.15l141.48 -0.03c27.14,0 27.14,41.26 0,41.26l-122.32 0 -11.91 163.33c-0.23,11.2 -9.38,20.21 -20.63,20.21l-55.44 -0.06c-8.7,0 -16.79,-5.56 -19.59,-14.29l-25.98 -80.93 -138.7 0 -21.14 78.9c-1.96,9.35 -10.26,16.38 -20.19,16.38l-65 0zm-7.43 -383.45c0,-27.14 41.26,-27.14 41.26,0l0 7.4 35.93 0c27.13,0 27.13,41.26 0,41.26l-35.93 0 0 43.82 7.89 0c34.79,0 63.17,28.38 63.17,63.16 0,34.74 -28.45,63.17 -63.17,63.17l-7.89 0 0 7.41c0,27.13 -41.26,27.13 -41.26,0l0 -7.41 -35.92 0c-27.14,0 -27.14,-41.26 0,-41.26l35.92 0 0 -43.81 -7.89 0c-34.72,0 -63.17,-28.44 -63.17,-63.17 0,-34.72 28.44,-63.17 63.17,-63.17l7.89 0 0 -7.4zm41.26 133.74l0 43.81 7.89 0c12.08,0 21.91,-9.84 21.91,-21.91 0,-12 -9.9,-21.9 -21.91,-21.9l-7.89 0zm-41.26 -41.26l0 -43.82 -7.89 0c-12.06,0 -21.9,9.87 -21.9,21.91 0,12.06 9.83,21.91 21.9,21.91l7.89 0zm466.72 527.66l21.79 0 0 -327.2 -21.79 0 0 327.2zm-139.9 0l21.79 0 0 -132.13 -21.79 0 0 132.13zm-139.89 0l21.79 0 0 -228.68 -21.79 0 0 228.68zm-139.9 0l21.79 0 0 -132.13 -21.79 0 0 132.13zm-105.42 41.26l0 27.7c217.44,0 434.88,0 652.32,0l0 -27.7c-217.44,0 -434.88,0 -652.32,0z"/></g></svg>