<?xml version="1.0" standalone="no"?>
<!DOCTYPE svg PUBLIC "-//W3C//DTD SVG 20010904//EN"
 "http://www.w3.org/TR/2001/REC-SVG-20010904/DTD/svg10.dtd">
<svg version="1.0" xmlns="http://www.w3.org/2000/svg"
 width="8rem" height="6rem" fill="#e6be31" viewBox="0 0 1920.000000 1080.000000"
 preserveAspectRatio="xMidYMid meet">

<g transform="translate(0.000000,1080.000000) scale(0.100000,-0.100000)"
fill="#e6be31" stroke="none">
<path d="M5522 9657 l-22 -23 0 -4146 0 -4145 26 -27 27 -26 3804 0 3805 0 29
29 c22 22 29 39 30 68 0 21 0 1580 1 3466 0 3175 -1 3429 -16 3453 -10 14 -28
29 -42 34 -16 6 -700 10 -1809 10 l-1785 0 -2 644 c-3 617 -4 645 -22 665
l-19 21 -1992 0 -1992 0 -21 -23z m3876 -4162 l2 -4030 -1872 0 -1873 1 -3
4018 c-1 2967 1 4022 9 4032 10 12 316 14 1873 12 l1861 -3 3 -4030z m3650
-670 l2 -3361 -1740 0 -1740 0 0 3363 0 3363 1738 -2 1737 -3 3 -3360z"/>
</g>
</svg>
