<?xml version="1.0" standalone="no"?>
<!DOCTYPE svg PUBLIC "-//W3C//DTD SVG 20010904//EN"
 "http://www.w3.org/TR/2001/REC-SVG-20010904/DTD/svg10.dtd">
<svg version="1.0" xmlns="http://www.w3.org/2000/svg"
 width="1920.000000pt" height="1080.000000pt" viewBox="0 0 1920.000000 1080.000000"
 preserveAspectRatio="xMidYMid meet">

<g transform="translate(0.000000,1080.000000) scale(0.100000,-0.100000)"
fill="#e6be31" stroke="none">
<path d="M5730 9199 c-32 -13 -78 -56 -96 -91 -8 -15 -17 -53 -20 -85 -3 -32
-8 -1289 -10 -2793 -2 -1504 -4 -2778 -5 -2830 -5 -248 13 -1501 23 -1548 12
-65 62 -121 124 -140 32 -9 866 -12 3823 -12 3391 0 3785 2 3819 15 76 32 113
88 113 170 0 86 -49 152 -129 175 -25 7 -1214 10 -3708 10 -3314 0 -3672 2
-3678 16 -3 8 -6 1581 -6 3494 1 3139 -1 3483 -15 3517 -20 48 -41 71 -87 94
-40 20 -107 24 -148 8z"/>
<path d="M12380 8828 c-75 -15 -138 -27 -290 -53 -250 -43 -269 -48 -275 -64
-6 -16 4 -27 120 -127 l59 -51 -59 -74 c-32 -41 -62 -76 -65 -79 -3 -3 -46
-54 -95 -115 -80 -99 -264 -322 -445 -540 -36 -44 -100 -121 -141 -171 -40
-49 -126 -153 -189 -230 -63 -76 -117 -141 -120 -144 -3 -3 -55 -66 -115 -140
-60 -74 -143 -175 -185 -225 -42 -49 -116 -139 -165 -200 -50 -60 -100 -121
-111 -135 -35 -41 -535 -647 -592 -719 -30 -36 -60 -69 -67 -74 -10 -5 -63 54
-185 205 -94 117 -177 221 -186 231 -37 45 -186 228 -253 311 -40 50 -88 109
-106 131 -18 22 -124 153 -234 290 -295 366 -309 382 -348 400 -44 21 -139 17
-177 -9 -15 -9 -140 -153 -278 -319 -137 -166 -267 -322 -288 -347 -20 -25
-150 -180 -288 -345 -137 -165 -271 -320 -297 -345 -38 -36 -175 -191 -207
-235 -4 -5 -19 -24 -33 -41 -14 -18 -25 -35 -25 -38 0 -14 -52 -80 -382 -478
-109 -131 -205 -252 -213 -268 -42 -81 1 -197 89 -238 57 -27 98 -28 151 -2
51 25 45 18 286 310 34 41 87 102 118 135 31 33 106 123 166 199 61 77 138
170 172 208 34 37 76 89 93 115 17 25 53 71 80 102 41 46 207 246 401 482 183
222 499 600 520 623 34 37 35 36 137 -94 42 -52 89 -111 106 -131 17 -20 38
-44 46 -55 78 -97 606 -750 610 -754 3 -3 82 -99 174 -215 93 -115 183 -225
200 -243 69 -75 180 -83 263 -21 21 15 132 147 316 374 45 55 84 102 87 105 3
3 46 55 95 115 49 61 135 164 190 230 55 67 170 206 255 310 85 104 189 230
230 279 41 50 80 98 87 106 7 8 73 89 148 180 126 152 191 231 454 550 152
185 226 274 304 367 39 48 80 97 89 108 9 11 69 85 134 163 64 79 123 146 130
149 8 3 40 -17 71 -43 79 -68 115 -94 130 -94 18 0 19 660 1 678 -14 14 -33
14 -98 0z"/>
<path d="M12139 7682 c-63 -66 -346 -401 -362 -429 -21 -36 -2 -43 112 -43 60
0 116 -3 125 -6 15 -6 16 -223 16 -2362 l0 -2355 24 -41 c77 -131 280 -110
328 34 9 26 12 610 12 2380 l1 2345 120 3 c118 3 143 10 127 38 -11 19 -65 86
-97 121 -16 18 -46 53 -65 77 -19 25 -42 47 -50 50 -9 3 -24 21 -35 38 -16 28
-118 159 -150 193 -27 29 -43 22 -106 -43z"/>
<path d="M11358 6728 c-162 -186 -369 -441 -365 -451 2 -8 39 -13 108 -14 57
-2 114 -5 126 -8 l22 -5 1 -1866 c0 -1027 3 -1878 6 -1893 18 -72 99 -131 182
-131 58 0 130 41 151 86 7 16 17 37 22 46 5 9 9 662 9 1450 0 2201 0 2300 6
2309 3 5 59 9 125 9 113 0 120 1 117 19 -3 17 -82 115 -331 408 -53 62 -95
103 -106 103 -10 0 -43 -28 -73 -62z"/>
<path d="M8173 6342 c-10 -10 -38 -42 -63 -72 -81 -97 -172 -204 -215 -255
-100 -117 -125 -151 -125 -167 0 -20 5 -21 127 -18 45 1 92 -1 104 -5 l21 -7
0 -347 c-1 -190 1 -942 4 -1671 5 -1311 5 -1324 25 -1357 29 -47 95 -83 152
-83 82 0 135 33 168 105 18 38 19 107 19 1696 l0 1657 23 6 c12 3 68 6 125 6
86 0 102 2 102 16 0 9 -79 111 -177 227 -256 308 -254 306 -290 269z"/>
<path d="M10606 5820 c-20 -22 -36 -45 -36 -50 0 -18 -100 -139 -119 -145 -10
-3 -31 -23 -46 -45 -15 -22 -47 -58 -71 -80 -45 -42 -114 -136 -114 -157 0
-21 21 -26 134 -32 l111 -6 3 -37 c2 -22 -1 -38 -7 -38 -7 0 -8 -19 -5 -52 4
-29 9 -642 13 -1363 7 -1447 2 -1350 69 -1407 49 -41 95 -53 157 -39 60 14
119 67 135 122 6 21 10 539 10 1419 0 856 4 1391 10 1400 7 12 29 14 115 12
57 -2 109 -1 114 2 19 12 -11 81 -52 121 -23 22 -69 73 -101 113 -33 40 -73
85 -90 100 -17 15 -43 45 -58 67 -34 51 -112 135 -125 135 -6 0 -27 -18 -47
-40z"/>
<path d="M8899 5328 c-57 -68 -105 -125 -108 -128 -38 -32 -201 -242 -201
-259 0 -20 4 -21 119 -21 66 0 122 -4 125 -9 3 -5 5 -379 3 -832 -3 -1119 1
-1545 15 -1597 12 -47 70 -107 113 -118 14 -3 50 -4 80 -2 64 5 115 40 142 96
17 35 18 102 15 1230 -1 816 1 1199 8 1212 10 18 22 20 130 20 96 0 120 3 120
14 0 12 -92 126 -313 391 -85 101 -110 125 -128 125 -11 0 -58 -47 -120 -122z"/>
<path d="M7363 5337 c-7 -7 -22 -21 -34 -32 -35 -34 -338 -398 -363 -437 -10
-15 -15 -32 -11 -38 4 -6 51 -10 119 -10 74 0 116 -4 124 -12 9 -9 12 -282 12
-1165 0 -1257 -4 -1178 57 -1235 69 -65 178 -65 246 0 61 58 57 -20 57 1236 0
633 4 1156 8 1163 5 8 47 13 127 15 112 3 120 4 117 22 -3 18 -98 136 -192
239 -19 21 -39 46 -44 55 -12 21 -42 59 -118 145 -60 66 -81 78 -105 54z"/>
<path d="M9789 4852 c-31 -35 -106 -121 -156 -182 -12 -14 -69 -81 -127 -150
-58 -68 -106 -132 -106 -142 0 -16 11 -18 119 -18 85 0 122 -4 128 -12 4 -7 8
-427 8 -933 0 -885 1 -921 19 -955 54 -100 164 -132 260 -76 36 21 53 40 69
75 21 46 21 53 22 961 0 503 4 921 8 928 6 8 43 12 128 12 92 0 119 3 119 13
0 7 -32 51 -71 98 -76 90 -91 108 -249 297 -59 70 -109 122 -119 122 -10 0
-33 -17 -52 -38z"/>
<path d="M6524 4343 c-18 -21 -77 -90 -131 -154 -203 -239 -263 -312 -263
-320 0 -20 38 -29 141 -31 l114 -3 1 -650 c2 -674 4 -706 44 -758 26 -33 97
-67 141 -67 76 1 151 59 178 139 8 24 11 226 11 687 l0 654 120 0 c98 0 122 3
126 15 6 13 -22 58 -58 97 -7 7 -34 38 -59 68 -272 326 -302 360 -322 360 -6
0 -25 -17 -43 -37z"/>
</g>
</svg>
