<?xml version="1.0" standalone="no"?>
<!DOCTYPE svg PUBLIC "-//W3C//DTD SVG 20010904//EN"
 "http://www.w3.org/TR/2001/REC-SVG-20010904/DTD/svg10.dtd">
<svg version="1.0" xmlns="http://www.w3.org/2000/svg"
 width="920.000000pt" height="55rem" viewBox="0 0 920.000000 518.000000"
 preserveAspectRatio="xMidYMid meet">

<g transform="translate(0.000000,518.000000) scale(0.100000,-0.100000)"
fill="#e6be31" stroke="none">
<path d="M3568 5033 c-20 -2 -42 -11 -48 -19 -7 -8 -22 -14 -33 -14 -61 0
-240 -117 -311 -204 -49 -61 -104 -159 -117 -212 -6 -24 -17 -49 -25 -55 -21
-17 -20 -314 0 -322 8 -3 17 -21 21 -39 10 -53 55 -138 107 -205 76 -96 219
-201 300 -218 18 -4 49 -16 68 -26 51 -28 259 -28 310 0 19 10 50 22 68 26 73
16 219 117 286 199 50 61 104 159 118 213 6 25 17 47 24 50 11 4 14 38 14 155
0 135 -2 152 -20 175 -11 14 -20 35 -20 47 0 29 -53 129 -104 195 -71 94 -256
221 -321 221 -10 0 -26 7 -36 16 -13 12 -45 16 -131 19 -62 2 -130 1 -150 -2z
m6 -253 c23 -8 25 -15 28 -82 l3 -73 180 -5 c177 -5 180 -5 183 -27 2 -17 -15
-40 -66 -90 -86 -84 -100 -108 -73 -123 11 -5 29 -10 40 -10 33 0 97 -69 111
-120 18 -65 8 -163 -21 -206 -55 -81 -178 -116 -264 -74 -89 43 -120 131 -57
164 25 13 30 12 51 -6 20 -16 24 -27 22 -64 -2 -38 1 -45 23 -55 63 -29 147
29 161 111 11 67 -2 141 -32 175 -24 27 -32 30 -92 31 -38 1 -67 6 -69 12 -2
6 18 40 45 74 70 91 102 141 97 150 -3 4 -56 8 -119 8 -94 0 -114 -3 -119 -16
-10 -25 -7 -250 3 -277 16 -41 69 -43 123 -5 13 9 21 9 28 2 8 -8 4 -20 -14
-41 -31 -37 -93 -50 -155 -33 -67 18 -75 40 -81 215 l-5 150 -52 5 c-86 9
-101 50 -18 50 68 0 75 6 75 60 0 30 -6 52 -15 60 -43 36 14 65 79 40z"/>
<path d="M5610 4184 c-14 -7 -32 -14 -40 -14 -8 0 -46 -22 -85 -48 -76 -52
-158 -159 -170 -219 -3 -18 -10 -33 -15 -33 -16 0 -12 -194 4 -227 8 -15 23
-50 35 -76 12 -27 42 -71 68 -98 49 -52 151 -119 182 -119 9 0 22 -5 28 -11 6
-6 44 -13 84 -16 155 -10 323 80 402 217 63 110 87 257 52 324 -8 15 -15 36
-15 45 -1 28 -53 108 -104 161 -30 31 -74 62 -115 81 -36 17 -74 35 -83 40
-28 14 -199 9 -228 -7z m311 -224 c54 -28 79 -72 79 -138 0 -115 -56 -219
-141 -262 -33 -17 -59 -20 -179 -20 l-140 0 0 29 c0 52 20 61 133 61 127 1
162 16 194 80 25 51 29 116 9 143 -20 26 -69 37 -166 37 -101 0 -114 6 -104
46 4 16 9 32 11 37 2 4 63 7 134 7 111 0 136 -3 170 -20z m-197 -166 c8 -20
-8 -48 -36 -68 -27 -19 -212 -23 -223 -5 -12 19 5 58 33 73 40 22 218 22 226
0z"/>
<path d="M4595 3920 c-16 -11 -38 -20 -48 -20 -41 0 -171 -81 -234 -147 -56
-59 -133 -185 -133 -220 0 -10 -7 -29 -17 -42 -13 -19 -16 -49 -16 -151 0
-102 3 -132 16 -151 10 -13 17 -31 17 -41 0 -34 78 -164 134 -220 65 -67 194
-148 234 -148 10 0 29 -8 42 -17 21 -15 47 -18 150 -18 103 0 129 3 150 18 13
9 33 17 42 17 55 0 213 111 275 192 46 60 93 145 93 168 0 8 9 32 20 53 17 31
20 56 20 150 0 80 -4 118 -14 133 -8 11 -19 39 -25 62 -40 145 -218 323 -363
363 -23 6 -51 17 -62 25 -15 10 -53 14 -136 14 -98 0 -119 -3 -145 -20z m-45
-265 c7 -8 23 -15 35 -15 12 0 39 7 58 15 53 22 149 19 220 -7 171 -62 259
-273 184 -440 -100 -222 -392 -268 -551 -86 -76 87 -107 218 -71 305 8 19 15
50 15 68 0 18 -7 38 -15 45 -23 19 -19 78 8 106 26 28 97 34 117 9z"/>
<path d="M4692 3493 c-13 -2 -41 -22 -63 -44 -38 -38 -39 -41 -39 -109 0 -63
3 -72 31 -105 37 -41 93 -60 157 -50 121 18 165 177 75 267 -33 32 -47 39 -88
42 -28 3 -60 2 -73 -1z"/>
<path d="M2396 3765 c-11 -8 -26 -15 -34 -15 -29 0 -128 -53 -188 -101 -92
-73 -184 -203 -198 -280 -4 -21 -13 -42 -21 -49 -22 -18 -22 -272 0 -290 8 -7
17 -28 21 -49 14 -77 106 -207 198 -280 60 -48 159 -101 188 -101 8 0 23 -7
34 -15 28 -21 280 -21 308 0 11 8 26 15 34 15 28 0 127 53 184 97 85 67 198
225 198 278 0 8 9 32 20 52 17 32 20 57 20 153 0 98 -3 119 -20 145 -11 17
-20 38 -20 48 0 56 -110 210 -198 280 -57 44 -156 97 -184 97 -8 0 -23 7 -34
15 -28 21 -280 21 -308 0z m291 -197 c70 -27 138 -71 160 -104 15 -24 15 -26
-12 -54 -35 -36 -39 -37 -73 -4 -52 50 -119 74 -210 74 -88 0 -140 -18 -206
-73 l-30 -24 24 -13 c15 -8 50 -11 104 -8 45 3 90 2 101 -2 11 -4 44 -4 73 1
59 9 82 4 82 -17 0 -8 -27 -61 -60 -117 -33 -57 -60 -108 -60 -115 0 -20 21
-24 129 -23 59 1 115 -1 124 -5 23 -8 21 -40 -4 -81 l-21 -34 27 -29 c27 -28
27 -30 12 -54 -22 -33 -90 -77 -160 -104 -176 -67 -399 14 -494 178 -34 59
-63 157 -63 215 0 58 29 156 63 215 27 47 95 118 132 138 121 67 253 81 362
40z"/>
<path d="M2249 3238 c-18 -34 -5 -156 22 -203 34 -60 88 -114 144 -142 42 -22
64 -26 135 -26 73 -1 92 3 135 26 63 34 98 63 90 77 -4 6 -73 10 -184 10 -196
0 -212 5 -186 50 8 14 21 39 30 55 18 35 32 60 57 96 9 15 20 39 24 53 l6 26
-131 0 c-124 0 -131 -1 -142 -22z"/>
<path d="M6280 3295 c-14 -7 -52 -26 -84 -41 -83 -40 -166 -125 -206 -210 -17
-38 -36 -77 -41 -86 -12 -23 -12 -225 0 -232 5 -3 13 -25 19 -48 14 -54 61
-126 120 -183 47 -46 147 -105 179 -105 10 0 24 -5 31 -12 16 -16 208 -16 224
0 7 7 18 12 26 12 32 0 122 52 175 100 58 53 127 156 127 189 0 9 7 26 15 37
16 22 22 234 6 234 -5 0 -13 15 -17 33 -8 40 -29 79 -76 143 -49 67 -171 154
-216 154 -10 0 -27 7 -38 15 -25 19 -207 19 -244 0z m175 -240 l30 -55 -33
-62 c-18 -35 -32 -66 -32 -70 0 -10 30 2 63 26 27 20 28 20 46 1 40 -44 162
-248 153 -257 -5 -5 -33 -8 -63 -6 l-54 3 -75 102 c-41 56 -79 100 -85 99 -9
-2 -32 -37 -55 -81 -6 -11 -19 -33 -30 -50 -11 -16 -23 -37 -27 -45 -3 -8 -11
-18 -17 -22 -13 -9 -140 -11 -149 -2 -3 3 4 23 17 43 12 20 25 43 29 51 4 8
11 22 17 30 23 35 187 317 193 333 13 34 42 19 72 -38z m-17 -306 c3 -22 -5
-32 -48 -59 -47 -30 -79 -35 -52 -8 7 7 12 20 12 30 0 10 4 18 10 18 5 0 13
11 16 26 5 20 12 24 33 22 20 -2 27 -9 29 -29z"/>
<path d="M3608 2933 c-32 -2 -58 -8 -58 -13 0 -5 -19 -14 -42 -20 -125 -32
-284 -148 -363 -266 -35 -51 -74 -135 -81 -170 -3 -19 -14 -42 -23 -51 -24
-24 -24 -296 1 -333 9 -14 19 -40 23 -59 14 -67 88 -183 164 -260 78 -78 200
-152 274 -165 21 -4 41 -14 44 -22 8 -21 318 -21 326 0 3 8 31 19 61 26 31 6
58 16 62 21 3 5 22 16 41 24 53 22 162 114 210 176 50 65 113 184 113 215 0
12 9 33 20 47 18 22 20 40 20 170 0 116 -3 147 -15 157 -8 7 -20 31 -25 54
-29 113 -149 274 -263 350 -53 36 -130 73 -167 81 -19 4 -42 13 -50 20 -16 14
-177 25 -272 18z m86 -295 c9 -12 16 -32 16 -43 0 -35 20 -45 90 -45 58 0 69
-3 97 -29 34 -31 45 -68 41 -141 -3 -40 0 -45 19 -48 36 -5 91 -74 98 -125 13
-84 -19 -136 -113 -187 -52 -28 -62 -52 -42 -101 10 -23 10 -32 0 -44 -20 -24
-49 -18 -62 13 -17 40 -39 62 -60 62 -17 0 -18 -7 -16 -62 3 -61 2 -63 -21
-63 -19 0 -30 11 -48 45 -13 24 -28 47 -34 51 -6 3 -29 0 -51 -8 -50 -17 -76
-9 -84 24 -6 21 -1 31 25 52 38 31 40 67 12 156 -11 33 -30 94 -42 135 -13 41
-27 81 -32 88 -5 6 -29 12 -54 12 -36 0 -45 4 -52 23 -13 33 4 54 49 62 55 9
72 29 69 79 -3 69 -1 76 25 76 28 0 39 -13 56 -63 8 -27 17 -37 28 -35 13 2
18 16 20 58 1 30 5 61 7 68 7 20 43 14 59 -10z"/>
<path d="M3651 2434 c-20 -14 -23 -23 -18 -61 9 -86 59 -103 132 -47 27 20 35
34 35 59 0 18 -8 39 -18 48 -24 22 -100 22 -131 1z"/>
<path d="M3755 2227 c-69 -27 -70 -29 -55 -92 19 -80 27 -86 92 -68 55 15 118
68 118 99 0 8 -13 29 -29 45 -32 32 -72 37 -126 16z"/>
<path d="M5025 2581 c-3 -5 -20 -13 -38 -17 -60 -13 -132 -59 -202 -129 -64
-64 -125 -155 -125 -187 0 -7 -8 -26 -17 -43 -24 -43 -24 -237 0 -280 9 -16
17 -35 17 -42 0 -33 61 -126 124 -189 69 -69 142 -115 205 -129 17 -3 33 -11
36 -16 4 -5 62 -9 130 -9 68 0 126 4 130 9 3 5 20 13 38 16 53 12 163 83 215
139 26 29 63 84 82 122 18 38 39 82 46 97 9 19 14 67 14 142 0 75 -5 123 -14
142 -7 15 -28 59 -46 97 -20 41 -56 92 -89 126 -57 58 -167 130 -200 130 -9 0
-26 7 -37 15 -14 11 -50 14 -141 15 -67 0 -124 -4 -128 -9z m236 -171 c235
-75 331 -362 185 -555 -59 -78 -95 -104 -187 -136 -163 -57 -348 24 -430 189
-31 61 -34 75 -34 157 0 79 4 97 29 149 50 101 114 159 220 196 68 25 140 24
217 0z"/>
<path d="M5132 2348 c-6 -6 -12 -18 -12 -24 0 -7 -24 -25 -52 -39 -104 -52
-148 -118 -148 -220 0 -102 44 -168 147 -219 36 -18 53 -33 55 -49 2 -15 11
-23 30 -25 21 -3 29 3 40 25 8 16 35 39 63 55 85 46 131 116 89 132 -10 4 -25
1 -34 -6 -9 -7 -36 -28 -60 -45 -36 -27 -52 -33 -95 -33 -62 0 -118 35 -149
92 -34 63 -23 67 193 70 186 3 186 3 189 26 8 54 -78 166 -154 201 -29 14 -44
28 -46 43 -3 26 -36 36 -56 16z m116 -148 c26 -18 42 -38 42 -50 0 -20 -5 -20
-137 -18 -158 3 -167 10 -95 65 37 28 52 33 96 33 43 0 61 -6 94 -30z"/>
<path d="M2540 2038 c-136 -60 -192 -106 -231 -195 -12 -27 -26 -56 -30 -65
-12 -23 -12 -173 0 -196 5 -9 17 -36 27 -60 39 -94 171 -190 286 -207 137 -21
309 78 369 212 12 26 26 56 30 65 5 10 9 50 9 89 0 135 -90 275 -211 328 -30
13 -62 27 -71 32 -24 12 -148 10 -178 -3z m223 -191 c12 -51 3 -57 -36 -19
-35 34 -102 51 -132 35 -15 -9 -10 -17 34 -71 28 -34 51 -69 51 -79 -1 -10
-30 -49 -65 -87 -35 -39 -62 -73 -59 -78 3 -4 42 -8 87 -8 74 0 83 2 109 27
32 31 47 25 30 -12 -7 -14 -12 -35 -12 -45 0 -32 -33 -40 -157 -40 -141 0
-159 7 -122 47 26 28 70 77 108 122 12 13 21 28 21 34 0 5 -31 50 -70 98 -38
49 -70 96 -70 104 0 13 20 15 137 13 l137 -3 9 -38z"/>
<path d="M6590 1911 c0 -5 -15 -13 -32 -17 -52 -11 -126 -55 -185 -108 -56
-50 -133 -169 -133 -205 0 -11 -7 -26 -15 -35 -12 -11 -15 -40 -15 -126 0 -86
3 -115 15 -126 8 -9 15 -24 15 -35 0 -33 53 -121 112 -184 58 -62 144 -117
206 -130 17 -3 32 -11 32 -16 0 -12 237 -12 245 0 3 5 20 13 38 17 65 14 172
87 226 155 39 48 91 145 91 169 0 9 6 22 13 29 8 8 12 47 12 121 0 74 -4 113
-12 121 -7 7 -13 20 -13 29 0 23 -54 124 -91 170 -52 64 -177 150 -219 150 -9
0 -25 7 -36 15 -14 11 -49 14 -136 15 -66 0 -118 -4 -118 -9z m295 -290 c50
-22 103 -74 113 -109 4 -15 7 -62 7 -104 -1 -70 -4 -82 -31 -120 -52 -75 -79
-83 -311 -86 l-203 -3 0 24 c0 32 15 37 105 37 81 0 85 3 85 70 0 55 -20 70
-89 70 -39 0 -63 5 -71 15 -21 25 -1 35 69 35 77 0 91 9 91 61 0 66 -4 69 -90
69 -81 0 -109 13 -96 45 4 13 35 15 193 15 160 0 194 -3 228 -19z"/>
<path d="M6714 1566 c-3 -7 -4 -35 -2 -62 3 -46 5 -49 33 -54 27 -5 31 -11 27
-39 -1 -5 -16 -11 -32 -15 l-31 -6 3 -62 3 -63 63 -3 c117 -6 169 54 159 182
-4 65 -7 72 -41 103 -33 31 -40 33 -106 33 -51 0 -72 -4 -76 -14z"/>
<path d="M3622 1255 c-7 -8 -22 -15 -32 -15 -36 0 -143 -64 -200 -121 -65 -63
-124 -157 -134 -211 -4 -20 -12 -38 -17 -40 -19 -6 -15 -227 5 -263 9 -16 16
-36 16 -43 0 -21 40 -94 80 -147 58 -76 199 -174 251 -175 8 0 24 -7 35 -15
22 -17 239 -22 249 -5 3 5 24 14 46 20 49 13 142 68 190 112 67 63 129 159
144 226 3 17 11 34 16 37 12 8 12 255 0 255 -5 0 -13 14 -16 32 -18 79 -100
198 -176 254 -62 45 -135 84 -159 84 -10 0 -25 7 -34 15 -21 21 -245 21 -264
0z m378 -175 c58 -31 45 -98 -24 -124 -43 -16 -146 -113 -160 -150 -4 -13 2
-31 18 -55 43 -64 51 -102 36 -166 -12 -52 -12 -57 6 -75 10 -11 37 -25 59
-32 36 -12 40 -17 43 -50 2 -29 -1 -39 -18 -48 -38 -21 -63 -8 -91 45 -29 57
-47 65 -86 35 -16 -11 -51 -23 -78 -26 -72 -9 -129 10 -174 56 -102 106 -71
256 69 331 38 20 46 30 48 57 2 19 -4 44 -12 57 -9 14 -16 35 -16 49 0 58 71
75 100 24 13 -25 13 -31 -2 -60 -36 -71 -27 -118 22 -118 40 0 155 132 164
188 9 59 51 86 96 62z"/>
</g>
</svg>
