<?xml version="1.0" standalone="no"?>
<!DOCTYPE svg PUBLIC "-//W3C//DTD SVG 20010904//EN"
 "http://www.w3.org/TR/2001/REC-SVG-20010904/DTD/svg10.dtd">
<svg version="1.0" xmlns="http://www.w3.org/2000/svg"
 width="1920.000000pt" height="1080.000000pt" viewBox="0 0 1920.000000 1080.000000"
 preserveAspectRatio="xMidYMid meet">

<g transform="translate(0.000000,1080.000000) scale(0.100000,-0.100000)"
fill="#e6be31" stroke="none">
<path d="M9209 9756 c-2 -2 -58 -9 -124 -15 -158 -15 -297 -37 -480 -77 -111
-24 -242 -58 -310 -79 -22 -7 -87 -28 -145 -46 -113 -35 -314 -113 -450 -175
-561 -254 -1094 -650 -1498 -1112 -126 -144 -329 -410 -388 -507 -19 -33 -62
-103 -95 -155 -59 -93 -212 -392 -257 -500 -13 -30 -29 -68 -37 -85 -29 -61
-74 -184 -115 -315 -23 -74 -45 -146 -50 -160 -4 -14 -15 -54 -25 -90 -9 -36
-20 -78 -25 -95 -5 -16 -12 -48 -15 -70 -4 -22 -11 -53 -15 -70 -20 -68 -64
-375 -80 -556 -13 -151 -13 -519 0 -679 16 -184 52 -441 80 -565 34 -151 44
-195 55 -235 75 -267 149 -480 226 -648 16 -35 29 -65 29 -68 0 -12 130 -263
191 -368 95 -165 172 -285 265 -412 109 -148 275 -346 310 -369 43 -28 140
-26 183 4 63 45 90 146 56 212 -9 16 -60 82 -114 147 -520 623 -822 1332 -933
2197 -18 137 -18 756 0 885 69 500 150 802 333 1230 35 82 153 311 217 420
321 548 796 1037 1352 1392 441 281 974 485 1505 577 180 31 508 61 661 61 93
0 148 27 182 91 42 78 19 164 -58 217 -31 21 -42 22 -230 22 -108 0 -199 -2
-201 -4z"/>
<path d="M10007 9685 c-43 -30 -77 -90 -77 -136 0 -47 34 -110 74 -137 33 -22
63 -30 266 -68 533 -99 1089 -303 1465 -539 61 -38 159 -104 219 -148 168
-122 185 -131 237 -130 119 2 197 117 154 229 -15 39 -32 57 -129 128 -276
205 -529 352 -791 461 -49 20 -99 41 -110 46 -96 43 -333 123 -500 169 -16 5
-55 15 -85 24 -133 37 -175 47 -345 81 -44 9 -110 23 -146 31 -107 23 -187 19
-232 -11z"/>
<path d="M9200 9175 c-222 -20 -430 -57 -675 -121 -217 -56 -598 -204 -647
-251 -15 -15 -34 -47 -43 -73 -14 -41 -14 -51 -1 -89 32 -89 74 -121 158 -121
56 0 65 3 213 71 11 5 52 20 90 34 309 113 508 161 843 205 212 28 603 28 817
0 235 -30 291 -41 590 -120 58 -15 290 -96 358 -125 617 -260 1134 -667 1520
-1196 86 -118 147 -209 178 -264 9 -16 26 -46 37 -65 61 -103 166 -322 221
-463 39 -97 54 -121 96 -147 40 -25 114 -26 162 -3 45 21 93 94 93 142 0 81
-146 408 -299 671 -279 480 -641 875 -1113 1213 -645 463 -1466 721 -2269 716
-107 -1 -255 -7 -329 -14z"/>
<path d="M9330 8609 c-420 -25 -838 -136 -1220 -321 -139 -68 -284 -149 -375
-211 -67 -45 -284 -205 -301 -221 -6 -6 -58 -52 -115 -103 -57 -51 -151 -145
-209 -209 -58 -64 -110 -122 -116 -128 -20 -21 -180 -241 -216 -296 -171 -267
-279 -491 -378 -790 -64 -193 -117 -431 -142 -640 -17 -141 -17 -621 0 -770
13 -106 68 -405 79 -422 9 -16 33 -7 194 71 90 43 193 92 229 109 79 36 825
390 1000 474 69 33 202 97 295 141 l170 82 1320 5 1320 5 120 53 c66 30 239
104 385 166 146 62 292 125 325 141 33 15 83 36 110 46 28 11 59 24 70 29 11
6 72 32 135 59 63 27 116 54 118 60 2 6 -11 37 -29 69 -76 135 -120 223 -114
231 5 10 49 8 215 -9 253 -26 332 -33 410 -39 71 -5 85 -9 88 -24 2 -10 -21
-62 -51 -115 -30 -53 -83 -149 -117 -212 -67 -122 -99 -180 -136 -245 -12 -22
-28 -40 -35 -40 -7 0 -41 51 -75 114 -35 63 -69 120 -77 128 -12 12 -50 -2
-263 -93 -137 -59 -305 -130 -374 -159 -69 -29 -195 -83 -280 -120 -85 -36
-212 -91 -283 -121 l-127 -54 -1301 0 -1301 0 -166 -79 c-92 -43 -196 -92
-232 -109 -36 -16 -127 -60 -203 -96 -76 -36 -158 -75 -183 -87 -53 -23 -191
-89 -387 -183 -77 -36 -140 -66 -142 -66 -1 0 -65 -30 -141 -66 -77 -37 -188
-90 -249 -118 -60 -29 -127 -61 -147 -70 -20 -10 -39 -23 -41 -30 -3 -7 10
-57 29 -112 19 -54 39 -110 44 -124 41 -119 166 -373 247 -502 12 -21 23 -40
23 -42 0 -6 98 -150 154 -226 137 -189 409 -470 601 -623 91 -73 258 -189 350
-244 247 -148 553 -284 770 -343 381 -103 578 -130 945 -130 401 0 674 42
1035 160 771 251 1438 795 1843 1502 123 214 244 496 302 703 6 22 18 65 27
95 119 426 139 1020 48 1480 -60 305 -161 598 -300 865 -149 289 -271 466
-493 716 -142 160 -364 362 -506 459 -11 8 -57 39 -101 70 -158 112 -409 245
-610 325 -359 142 -672 213 -1035 235 -181 11 -244 11 -430 -1z m425 -19 c234
-15 333 -30 576 -86 303 -70 661 -218 944 -389 153 -93 348 -239 490 -366 108
-98 336 -337 359 -378 5 -9 31 -43 56 -76 162 -208 328 -499 422 -740 51 -130
122 -345 116 -351 -5 -4 -206 14 -458 41 -74 8 -171 16 -215 17 -76 3 -80 2
-83 -19 -2 -12 8 -40 22 -62 14 -22 26 -42 26 -45 0 -2 23 -45 51 -96 28 -50
49 -93 47 -96 -3 -2 -130 -57 -284 -122 -153 -66 -299 -128 -324 -140 -25 -11
-121 -52 -215 -92 -93 -40 -232 -99 -308 -131 l-139 -59 -1299 0 -1300 0 -47
-21 c-66 -30 -190 -88 -379 -180 -90 -43 -189 -90 -220 -105 -32 -14 -107 -50
-168 -79 -60 -29 -155 -74 -210 -100 -55 -26 -149 -71 -210 -100 -60 -29 -146
-70 -190 -90 -44 -21 -163 -78 -264 -126 -101 -49 -188 -89 -192 -89 -5 0 -11
10 -13 22 -2 13 -9 48 -15 78 -31 157 -40 214 -53 305 -17 133 -17 645 0 780
74 570 281 1098 607 1550 395 549 986 979 1626 1184 35 12 84 27 109 35 51 16
217 56 330 79 231 47 532 65 805 47z m2994 -2487 c7 -27 16 -64 22 -84 45
-174 69 -423 69 -714 0 -267 -16 -455 -55 -635 -9 -41 -18 -88 -22 -105 -46
-240 -201 -636 -346 -888 -31 -54 -57 -101 -57 -104 0 -4 -11 -21 -25 -39 -14
-18 -25 -35 -25 -39 0 -11 -173 -240 -253 -335 -121 -143 -248 -266 -443 -430
-60 -50 -272 -195 -364 -249 -693 -405 -1425 -544 -2235 -425 -274 41 -668
166 -930 297 -647 322 -1161 836 -1483 1482 -95 190 -207 481 -193 503 3 5
130 68 281 140 292 138 411 194 580 274 58 28 130 61 160 75 30 14 102 48 160
76 58 27 157 74 220 104 63 31 142 68 175 83 33 15 113 53 177 84 l118 56
1304 0 1305 0 68 30 c37 17 76 35 85 40 10 6 22 10 27 10 6 0 49 18 96 40 47
22 92 40 99 40 6 0 16 4 21 9 6 5 66 33 135 61 115 48 159 67 248 106 37 16
86 37 122 52 14 6 48 21 75 33 79 35 327 139 331 139 2 0 20 -30 39 -67 68
-132 112 -203 125 -203 10 0 58 78 120 195 23 44 46 85 50 90 7 10 40 69 101
183 19 35 39 71 44 80 6 9 18 32 28 50 10 17 21 32 26 32 5 0 14 -21 20 -47z"/>
<path d="M9141 7764 c-30 -25 -30 -27 -33 -132 l-3 -107 -85 -3 c-46 -2 -90
-8 -97 -14 -11 -8 -13 -196 -13 -979 0 -866 2 -969 16 -983 13 -14 52 -16 272
-16 145 0 264 4 272 10 13 8 15 129 18 975 1 648 -1 972 -8 985 -9 16 -23 20
-98 22 l-87 3 -6 100 c-6 116 -11 131 -50 150 -40 21 -63 19 -98 -11z m97 -2
c21 -14 32 -72 32 -164 0 -101 -6 -96 120 -100 l75 -3 3 -959 c1 -700 -1 -962
-9 -972 -9 -11 -64 -14 -265 -14 l-254 0 -5 23 c-3 12 -4 450 -3 972 l3 950
85 3 c65 2 88 6 98 19 7 11 12 52 12 113 0 113 12 140 63 140 18 0 38 -4 45
-8z"/>
<path d="M9849 7121 c-28 -29 -29 -32 -29 -134 l0 -105 -94 -4 c-52 -1 -98 -7
-103 -11 -4 -5 -9 -295 -10 -645 -2 -501 0 -642 10 -662 l13 -25 264 -3 c260
-2 265 -2 283 19 16 20 17 66 17 658 0 383 -4 642 -10 651 -7 11 -33 16 -100
18 l-90 4 0 94 c0 65 -5 104 -15 124 -30 58 -90 67 -136 21z m102 -10 c28 -29
29 -32 29 -134 0 -122 -5 -117 116 -117 66 0 72 -2 78 -22 10 -39 7 -1234 -4
-1262 l-10 -26 -254 0 c-242 0 -256 1 -266 19 -11 21 -15 1246 -4 1275 5 13
22 16 86 16 118 0 118 0 118 130 0 105 1 109 26 129 36 28 50 26 85 -8z"/>
<path d="M8468 6521 l-33 -29 -3 -141 c-4 -162 6 -149 -117 -153 l-70 -3 -3
-319 c-2 -227 1 -323 9 -332 9 -11 64 -14 275 -14 250 0 264 1 274 19 12 23
14 619 2 638 -5 8 -41 13 -97 15 l-90 3 -5 140 c-3 77 -9 147 -13 156 -9 18
-59 49 -81 49 -9 0 -30 -13 -48 -29z m85 -2 c12 -7 24 -14 27 -16 3 -3 7 -73
10 -156 l5 -152 93 -5 c67 -4 95 -9 102 -20 6 -9 9 -131 8 -308 -3 -247 -5
-294 -18 -302 -8 -6 -126 -10 -266 -10 -221 0 -253 2 -258 16 -9 23 -7 597 2
611 5 8 41 13 97 15 l90 3 5 148 c5 141 6 150 29 168 27 22 43 24 74 8z"/>
<path d="M10543 6520 c-39 -16 -48 -48 -53 -195 l-5 -140 -83 0 c-72 0 -86 -3
-98 -20 -22 -30 -16 -611 6 -625 8 -6 128 -10 272 -10 254 0 257 0 272 22 14
19 16 66 16 308 0 340 2 331 -89 323 -33 -3 -71 -3 -85 1 l-26 6 0 140 c0 130
-1 141 -22 164 -26 29 -72 40 -105 26z m91 -32 c13 -18 16 -52 16 -158 0 -74
5 -142 10 -150 7 -11 31 -15 92 -17 46 -1 86 -2 91 -2 4 -1 6 -137 5 -303 l-3
-303 -245 -3 c-135 -1 -255 0 -267 3 l-23 5 0 300 c0 278 1 300 18 301 9 1 45
1 78 0 103 -5 104 -3 104 150 0 91 4 140 14 164 14 32 19 35 55 35 30 0 44 -6
55 -22z"/>
<path d="M8255 5037 c-3 -7 -4 -147 -3 -312 l3 -300 90 -5 90 -5 5 -142 c4
-125 7 -145 25 -162 34 -33 68 -36 101 -8 29 25 29 25 34 169 l5 143 95 5 95
5 3 299 c2 212 -1 303 -9 312 -16 20 -527 21 -534 1z"/>
<path d="M8932 5038 c-9 -9 -12 -238 -12 -969 0 -863 2 -957 16 -963 9 -3 54
-6 100 -6 l84 0 0 -109 c0 -94 3 -112 21 -135 28 -35 77 -36 110 0 22 24 24
33 24 132 l0 107 90 3 c49 2 95 8 102 14 18 15 19 1908 1 1926 -17 17 -519 17
-536 0z"/>
<path d="M9641 5037 c-14 -18 -16 -1266 -2 -1280 5 -5 44 -9 86 -8 47 1 82 -2
91 -10 11 -9 14 -40 14 -129 0 -117 0 -119 27 -140 33 -25 76 -21 108 11 18
18 20 31 17 128 -3 137 0 141 103 141 40 0 80 3 89 6 14 5 16 73 15 632 0 563
-1 628 -16 644 -15 16 -39 18 -268 18 -198 0 -255 -3 -264 -13z"/>
<path d="M10318 5039 c-17 -9 -18 -35 -18 -314 0 -354 -11 -325 119 -325 57 0
81 -4 82 -12 1 -7 2 -73 3 -146 1 -128 2 -135 25 -153 30 -24 72 -24 102 0 23
18 24 27 29 163 l5 143 85 3 c46 2 90 8 97 14 17 13 19 588 3 619 -10 18 -24
19 -263 19 -152 0 -259 -5 -269 -11z"/>
<path d="M7367 8520 c-711 -480 -1243 -1186 -1513 -2008 -63 -193 -124 -459
-155 -683 -14 -101 -4 -146 44 -196 63 -67 163 -69 228 -4 40 40 50 67 68 201
71 500 270 1015 555 1440 203 302 385 505 684 762 42 37 241 184 319 237 83
55 113 100 113 166 -1 60 -23 106 -70 140 -27 20 -45 25 -94 25 -60 0 -64 -2
-179 -80z"/>
<path d="M12509 8477 c-53 -36 -79 -82 -79 -141 1 -28 6 -61 13 -73 7 -12 53
-66 103 -120 252 -272 423 -501 586 -788 280 -490 440 -973 518 -1565 30 -225
30 -745 0 -960 -34 -248 -55 -357 -110 -580 -79 -320 -255 -744 -419 -1014
-20 -33 -40 -68 -44 -76 -11 -24 -116 -179 -194 -288 -81 -111 -187 -239 -316
-381 -73 -79 -87 -100 -93 -137 -12 -85 19 -155 87 -189 37 -20 103 -19 145 1
83 39 399 416 569 679 32 50 66 101 75 115 40 60 143 246 197 356 117 237 192
427 293 749 13 44 65 258 84 345 62 302 89 566 88 895 0 344 -37 690 -107 990
-9 39 -20 86 -25 105 -4 19 -22 82 -39 140 -18 58 -36 119 -41 135 -26 90
-131 364 -177 464 -161 345 -290 563 -495 837 -159 212 -398 477 -460 510 -42
22 -119 18 -159 -9z"/>
<path d="M13114 6236 c-42 -19 -85 -77 -91 -125 -3 -22 2 -70 10 -108 76 -333
89 -855 31 -1223 -82 -516 -235 -917 -539 -1414 -147 -240 -495 -621 -755
-827 -154 -122 -364 -266 -440 -302 -8 -4 -31 -17 -50 -28 -155 -94 -447 -220
-670 -288 -165 -51 -177 -54 -385 -100 -146 -32 -460 -61 -670 -61 -236 0
-532 29 -715 71 -52 11 -111 24 -130 28 -95 20 -340 99 -429 137 -29 13 -57
24 -62 24 -16 0 -289 130 -379 181 -190 107 -355 218 -530 357 -115 92 -411
385 -506 502 -225 276 -425 612 -545 918 -50 125 -92 175 -157 185 -58 10 -96
-1 -141 -39 -45 -39 -66 -89 -58 -143 9 -72 142 -368 260 -581 160 -291 411
-614 671 -868 364 -354 750 -609 1226 -809 344 -145 642 -223 1070 -279 175
-23 674 -23 850 0 318 42 559 95 805 177 870 291 1619 893 2095 1682 206 340
359 708 444 1067 97 410 130 765 107 1147 -12 207 -18 261 -48 443 -20 124
-40 198 -64 231 -38 54 -135 75 -205 45z"/>
<path d="M5788 5400 c-67 -20 -109 -69 -122 -142 -19 -104 41 -677 86 -828 20
-66 92 -120 160 -120 70 0 151 67 164 136 4 21 0 68 -9 112 -37 183 -67 462
-67 629 0 63 -5 103 -15 122 -20 39 -69 78 -113 91 -42 11 -47 11 -84 0z"/>
<path d="M6611 2248 c-51 -27 -91 -91 -91 -142 1 -84 58 -145 333 -353 302
-228 615 -409 969 -559 117 -49 378 -141 493 -174 98 -28 153 -42 190 -50 22
-5 60 -13 85 -19 287 -67 610 -101 960 -101 388 1 648 30 1050 120 214 47 549
162 770 262 223 102 257 127 270 197 16 88 -15 152 -92 192 -51 26 -86 24
-160 -10 -408 -188 -660 -273 -1018 -344 -307 -62 -487 -79 -819 -79 -393 0
-610 26 -1007 123 -591 143 -1160 431 -1633 827 -151 127 -148 125 -205 130
-40 3 -61 -2 -95 -20z"/>
<path d="M12215 2144 c-16 -8 -43 -28 -60 -43 -40 -36 -159 -130 -272 -214
-118 -88 -146 -142 -118 -226 32 -98 129 -145 221 -106 43 18 97 57 259 184
200 158 225 193 208 293 -6 41 -59 103 -100 119 -37 14 -104 11 -138 -7z"/>
</g>
</svg>
